<svg width="3227" height="1479" xmlns="http://www.w3.org/2000/svg" xmlns:xlink="http://www.w3.org/1999/xlink" xml:space="preserve" overflow="hidden"><defs><clipPath id="clip0"><rect x="565" y="336" width="3227" height="1479"/></clipPath></defs><g clip-path="url(#clip0)" transform="translate(-565 -336)"><rect x="603.5" y="527.5" width="74.9999" height="1285" stroke="#2F528F" stroke-width="4.58333" stroke-miterlimit="8" fill="#729FCF"/><path d="M603 676 677.237 676.001" stroke="#000000" stroke-width="2.29167" stroke-miterlimit="8" fill="none" fill-rule="evenodd"/><path d="M603 818 677.237 818" stroke="#000000" stroke-width="2.29167" stroke-miterlimit="8" fill="none" fill-rule="evenodd"/><path d="M603 1687 677.237 1687" stroke="#000000" stroke-width="2.29167" stroke-miterlimit="8" fill="none" fill-rule="evenodd"/><text font-family="Arial,Arial_MSFontService,sans-serif" font-weight="700" font-size="55" transform="matrix(1 0 0 1 613.747 619)">x</text><text font-family="Arial,Arial_MSFontService,sans-serif" font-weight="700" font-size="37" transform="matrix(1 0 0 1 644.112 632)">1</text><text font-family="Arial,Arial_MSFontService,sans-serif" font-weight="700" font-size="55" transform="matrix(1 0 0 1 615.899 759)">x</text><text font-family="Arial,Arial_MSFontService,sans-serif" font-weight="700" font-size="37" transform="matrix(1 0 0 1 646.264 772)">2</text><text font-family="Arial,Arial_MSFontService,sans-serif" font-weight="700" font-size="55" transform="matrix(1 0 0 1 613.745 899)">x</text><text font-family="Arial,Arial_MSFontService,sans-serif" font-weight="700" font-size="37" transform="matrix(1 0 0 1 644.11 912)">3</text><path d="M603 980 677.237 980" stroke="#000000" stroke-width="2.29167" stroke-miterlimit="8" fill="none" fill-rule="evenodd"/><text font-family="Arial,Arial_MSFontService,sans-serif" font-weight="700" font-size="55" transform="matrix(1 0 0 1 613.746 1753)">x</text><text font-family="Arial,Arial_MSFontService,sans-serif" font-weight="700" font-size="37" transform="matrix(1 0 0 1 644.11 1766)">n</text><text font-family="Arial,Arial_MSFontService,sans-serif" font-weight="700" font-size="46" transform="matrix(1 0 0 1 636.34 1191)">.</text><text font-family="Arial,Arial_MSFontService,sans-serif" font-weight="700" font-size="46" transform="matrix(1 0 0 1 636.339 1270)">.</text><text font-family="Arial,Arial_MSFontService,sans-serif" font-weight="700" font-size="46" transform="matrix(1 0 0 1 636.337 1348)">.</text><rect x="929.5" y="848.5" width="152" height="532" stroke="#000000" stroke-width="4.58333" stroke-miterlimit="8" fill="#729FCF"/><rect x="950.5" y="825.5" width="152" height="531" stroke="#000000" stroke-width="4.58333" stroke-miterlimit="8" fill="#729FCF"/><rect x="979.5" y="801.5" width="152" height="531" stroke="#000000" stroke-width="4.58333" stroke-miterlimit="8" fill="#729FCF"/><rect x="1008.5" y="772.5" width="152" height="532" stroke="#000000" stroke-width="4.58333" stroke-miterlimit="8" fill="#729FCF"/><path d="M1008 901 1159.7 901" stroke="#000000" stroke-width="2.29167" stroke-miterlimit="8" fill="none" fill-rule="evenodd"/><path d="M1008 1027 1159.7 1027" stroke="#000000" stroke-width="2.29167" stroke-miterlimit="8" fill="none" fill-rule="evenodd"/><path d="M1008 1166 1159.7 1166" stroke="#000000" stroke-width="2.29167" stroke-miterlimit="8" fill="none" fill-rule="evenodd"/><text font-family="Arial,Arial_MSFontService,sans-serif" font-weight="700" font-size="50" transform="matrix(1 0 0 1 597.607 430)">Input</text><text font-family="Arial,Arial_MSFontService,sans-serif" font-weight="700" font-size="50" transform="matrix(1 0 0 1 1052.91 401)">1D </text><text font-family="Arial,Arial_MSFontService,sans-serif" font-weight="700" font-size="50" transform="matrix(1 0 0 1 938.032 462)">Convolution</text><rect x="1382.5" y="907.5" width="152" height="412" stroke="#000000" stroke-width="4.58333" stroke-miterlimit="8" fill="#729FCF"/><rect x="1403.5" y="884.5" width="152" height="412" stroke="#000000" stroke-width="4.58333" stroke-miterlimit="8" fill="#729FCF"/><rect x="1432.5" y="860.5" width="152" height="412" stroke="#000000" stroke-width="4.58333" stroke-miterlimit="8" fill="#729FCF"/><rect x="1461.5" y="831.5" width="152" height="412" stroke="#000000" stroke-width="4.58333" stroke-miterlimit="8" fill="#729FCF"/><path d="M1461 960 1612.7 960" stroke="#000000" stroke-width="2.29167" stroke-miterlimit="8" fill="none" fill-rule="evenodd"/><path d="M1461 1086 1612.7 1086" stroke="#000000" stroke-width="2.29167" stroke-miterlimit="8" fill="none" fill-rule="evenodd"/><text font-family="Arial,Arial_MSFontService,sans-serif" font-weight="700" font-size="50" transform="matrix(1 0 0 1 1511.08 401)">1D </text><text font-family="Arial,Arial_MSFontService,sans-serif" font-weight="700" font-size="50" transform="matrix(1 0 0 1 1396.2 462)">Convolution</text><rect x="1856.5" y="997.5" width="421" height="127" stroke="#2F528F" stroke-width="4.58333" stroke-miterlimit="8" fill="#FFFF00"/><text font-family="Calibri,Calibri_MSFontService,sans-serif" font-weight="700" font-size="55" transform="matrix(1 0 0 1 1900.97 1079)">Final Encoding</text><rect x="2542.5" y="907.5" width="152" height="412" stroke="#000000" stroke-width="4.58333" stroke-miterlimit="8" fill="#729FCF"/><rect x="2563.5" y="884.5" width="152" height="412" stroke="#000000" stroke-width="4.58333" stroke-miterlimit="8" fill="#729FCF"/><rect x="2593.5" y="860.5" width="151" height="412" stroke="#000000" stroke-width="4.58333" stroke-miterlimit="8" fill="#729FCF"/><rect x="2622.5" y="831.5" width="151" height="412" stroke="#000000" stroke-width="4.58333" stroke-miterlimit="8" fill="#729FCF"/><path d="M2622 960 2773.7 960" stroke="#000000" stroke-width="2.29167" stroke-miterlimit="8" fill="none" fill-rule="evenodd"/><path d="M2622 1086 2773.7 1086" stroke="#000000" stroke-width="2.29167" stroke-miterlimit="8" fill="none" fill-rule="evenodd"/><text font-family="Arial,Arial_MSFontService,sans-serif" font-weight="700" font-size="50" transform="matrix(1 0 0 1 2636 401)">1D </text><text font-family="Arial,Arial_MSFontService,sans-serif" font-weight="700" font-size="50" transform="matrix(1 0 0 1 2540.62 462)">Transpose</text><rect x="3055.5" y="848.5" width="152" height="532" stroke="#000000" stroke-width="4.58333" stroke-miterlimit="8" fill="#729FCF"/><rect x="3076.5" y="825.5" width="152" height="531" stroke="#000000" stroke-width="4.58333" stroke-miterlimit="8" fill="#729FCF"/><rect x="3105.5" y="801.5" width="152" height="531" stroke="#000000" stroke-width="4.58333" stroke-miterlimit="8" fill="#729FCF"/><rect x="3134.5" y="772.5" width="152" height="532" stroke="#000000" stroke-width="4.58333" stroke-miterlimit="8" fill="#729FCF"/><path d="M3134 901 3285.7 901" stroke="#000000" stroke-width="2.29167" stroke-miterlimit="8" fill="none" fill-rule="evenodd"/><path d="M3134 1027 3285.7 1027" stroke="#000000" stroke-width="2.29167" stroke-miterlimit="8" fill="none" fill-rule="evenodd"/><path d="M3134 1166 3285.7 1166" stroke="#000000" stroke-width="2.29167" stroke-miterlimit="8" fill="none" fill-rule="evenodd"/><text font-family="Arial,Arial_MSFontService,sans-serif" font-weight="700" font-size="50" transform="matrix(1 0 0 1 3150.34 401)">1D </text><text font-family="Arial,Arial_MSFontService,sans-serif" font-weight="700" font-size="50" transform="matrix(1 0 0 1 3054.96 462)">Transpose</text><rect x="3589.5" y="498.5" width="74" height="1286" stroke="#2F528F" stroke-width="4.58333" stroke-miterlimit="8" fill="#729FCF"/><path d="M3589 648 3663.24 648" stroke="#000000" stroke-width="2.29167" stroke-miterlimit="8" fill="none" fill-rule="evenodd"/><path d="M3589 790 3663.24 790" stroke="#000000" stroke-width="2.29167" stroke-miterlimit="8" fill="none" fill-rule="evenodd"/><path d="M3589 1659 3663.24 1659" stroke="#000000" stroke-width="2.29167" stroke-miterlimit="8" fill="none" fill-rule="evenodd"/><text font-family="Arial,Arial_MSFontService,sans-serif" font-weight="700" font-size="37" transform="matrix(1 0 0 1 3599.08 587)">Y1</text><text font-family="Arial,Arial_MSFontService,sans-serif" font-weight="700" font-size="37" transform="matrix(1 0 0 1 3601.23 726)">Y</text><text font-family="Arial,Arial_MSFontService,sans-serif" font-weight="700" font-size="37" transform="matrix(1 0 0 1 3625.86 726)">2</text><text font-family="Arial,Arial_MSFontService,sans-serif" font-weight="700" font-size="37" transform="matrix(1 0 0 1 3599.07 866)">Y</text><text font-family="Arial,Arial_MSFontService,sans-serif" font-weight="700" font-size="37" transform="matrix(1 0 0 1 3623.71 866)">3</text><path d="M3589 952 3663.24 952" stroke="#000000" stroke-width="2.29167" stroke-miterlimit="8" fill="none" fill-rule="evenodd"/><text font-family="Arial,Arial_MSFontService,sans-serif" font-weight="700" font-size="37" transform="matrix(1 0 0 1 3599.07 1721)">Y</text><text font-family="Arial,Arial_MSFontService,sans-serif" font-weight="700" font-size="37" transform="matrix(1 0 0 1 3623.71 1721)">n</text><text font-family="Arial,Arial_MSFontService,sans-serif" font-weight="700" font-size="46" transform="matrix(1 0 0 1 3621.67 1163)">.</text><text font-family="Arial,Arial_MSFontService,sans-serif" font-weight="700" font-size="46" transform="matrix(1 0 0 1 3621.67 1242)">.</text><text font-family="Arial,Arial_MSFontService,sans-serif" font-weight="700" font-size="46" transform="matrix(1 0 0 1 3621.67 1320)">.</text><text font-family="Arial,Arial_MSFontService,sans-serif" font-weight="700" font-size="50" transform="matrix(1 0 0 1 3553.76 427)">Ou</text><text font-family="Arial,Arial_MSFontService,sans-serif" font-weight="700" font-size="50" transform="matrix(1 0 0 1 3623.66 427)">t</text><text font-family="Arial,Arial_MSFontService,sans-serif" font-weight="700" font-size="50" transform="matrix(1 0 0 1 3640.27 427)">put</text><path d="M700.5 1049.75 859 1049.75 859 1037.5 883.5 1062 859 1086.5 859 1074.25 700.5 1074.25Z" stroke="#2F528F" stroke-width="4.58333" stroke-miterlimit="8" fill="#4472C4" fill-rule="evenodd"/><path d="M1189.5 1049.75 1349 1049.75 1349 1037.5 1373.5 1062 1349 1086.5 1349 1074.25 1189.5 1074.25Z" stroke="#2F528F" stroke-width="4.58333" stroke-miterlimit="8" fill="#4472C4" fill-rule="evenodd"/><path d="M1641.5 1049.75 1800 1049.75 1800 1037.5 1824.5 1062 1800 1086.5 1800 1074.25 1641.5 1074.25Z" stroke="#2F528F" stroke-width="4.58333" stroke-miterlimit="8" fill="#4472C4" fill-rule="evenodd"/><path d="M2325.5 1049.75 2484 1049.75 2484 1037.5 2508.5 1062 2484 1086.5 2484 1074.25 2325.5 1074.25Z" stroke="#2F528F" stroke-width="4.58333" stroke-miterlimit="8" fill="#4472C4" fill-rule="evenodd"/><path d="M2828.5 1048.75 2987 1048.75 2987 1036.5 3011.5 1061 2987 1085.5 2987 1073.25 2828.5 1073.25Z" stroke="#2F528F" stroke-width="4.58333" stroke-miterlimit="8" fill="#4472C4" fill-rule="evenodd"/><path d="M3345.5 1048.75 3504 1048.75 3504 1036.5 3528.5 1061 3504 1085.5 3504 1073.25 3345.5 1073.25Z" stroke="#2F528F" stroke-width="4.58333" stroke-miterlimit="8" fill="#4472C4" fill-rule="evenodd"/></g></svg>